# xmcd
#
# Track frame offsets:
#	150
#	21042
#	41521
#	60172
#	74923
#	97262
#	114517
#	131868
#	150621
#	166429
#	186051
#	205002
#	224610
#	245354
#
# Disc length: 3496 seconds
#
# Revision: 2
# Processed by: cddbd v1.5.2PL0 Copyright (c) Steve Scherf et al.
# Submitted via: audiograbber 1.83.01
#
DISCID=cc0da60e
DTITLE=Funky Brotherhood and Freda Goodlett - Try It
DYEAR=2006
DGENRE=Funk, Soul
TTITLE0=Falling Down
TTITLE1=Try It
TTITLE2=Enemy
TTITLE3=Another Day
TTITLE4=There For You
TTITLE5=Life
TTITLE6=Never Give Up
TTITLE7=Baby Love
TTITLE8=Go With The Flow
TTITLE9=Tickin'
TTITLE10=Crosswind
TTITLE11=Shake Remix - Greis
TTITLE12=Shake Remix - Freda
TTITLE13=One More Trip (Instrumental)
EXTD=
EXTT0=
EXTT1=
EXTT2=
EXTT3=
EXTT4=
EXTT5=
EXTT6=
EXTT7=
EXTT8=
EXTT9=
EXTT10=
EXTT11=
EXTT12=
EXTT13=
PLAYORDER=
